# xmcd
# 
# Track frame offsets:
#     150
#     21928
#     35024
#     56641
#     76895
#     97521
#     120731
#     142449
#     154587
#     170431
#     182068
#     193294
#     205853
#     218460
#     235110
#     247289
#     268994
#     280274
#     298723
#     315696
# 
# Disc length: 4337
# 
# Revision: 0
# Processed by: cddbd v1.5.2PL0 Copyright (c) Steve Scherf et al.
# Submitted via: fre:ac v1.0.27
# 
DISCID=2f10ef14
DTITLE=鈴木光人 - とくさしんご - スクールガールストライカーズ Animation Channel ORIGINAL SOUNDTRACK
DYEAR=2017
DGENRE=Anime
TTITLE0=フィフス・フォース ～フォームアニマ～
TTITLE1=新生私立女子高 - 五稜館学園
TTITLE2=マジカル・スター
TTITLE3=日溜まりのような君と
TTITLE4=みんな朝だよ！
TTITLE5=キュイジニエール・サジマ
TTITLE6=スキップビート ～登校中の出来事～
TTITLE7=緊急任務、今日は無し！
TTITLE8=隊長さんと出かけよう
TTITLE9=ウワサの美少女探偵
TTITLE10=ダイナマイトスパイク
TTITLE11=リブート・イン・プログレス
TTITLE12=アシッド・シナプス！
TTITLE13=伊緒の秘策
TTITLE14=記憶の欠片
TTITLE15=これからもみんないっしょで
TTITLE16=モノクロームの夢
TTITLE17=凡てを識る者
TTITLE18=過去と光の屈折率
TTITLE19=境界線
EXTD=
EXTT0=
EXTT1=
EXTT2=
EXTT3=
EXTT4=
EXTT5=
EXTT6=
EXTT7=
EXTT8=
EXTT9=
EXTT10=
EXTT11=
EXTT12=
EXTT13=
EXTT14=
EXTT15=
EXTT16=
EXTT17=
EXTT18=
EXTT19=
PLAYORDER=
